<svg width="292" height="247" xmlns="http://www.w3.org/2000/svg" xmlns:xlink="http://www.w3.org/1999/xlink">
  <title>One21</title>
  <defs>
    <circle id="b" cx="146.5" cy="119.5" r="119.5"/>
    <filter x="-2.5%" y="-1.7%" width="106.7%" height="106.7%" filterUnits="objectBoundingBox" id="a">
      <feOffset dx="2" dy="4" in="SourceAlpha" result="shadowOffsetOuter1"/>
      <feGaussianBlur stdDeviation="2" in="shadowOffsetOuter1" result="shadowBlurOuter1"/>
      <feColorMatrix values="0 0 0 0 0 0 0 0 0 0 0 0 0 0 0 0 0 0 0.5 0" in="shadowBlurOuter1"/>
    </filter>
    <circle id="c" cx="147" cy="120" r="91"/>
    <filter x="-2.2%" y="-2.2%" width="104.4%" height="104.4%" filterUnits="objectBoundingBox" id="d">
      <feGaussianBlur stdDeviation="4" in="SourceAlpha" result="shadowBlurInner1"/>
      <feOffset in="shadowBlurInner1" result="shadowOffsetInner1"/>
      <feComposite in="shadowOffsetInner1" in2="SourceAlpha" operator="arithmetic" k2="-1" k3="1" result="shadowInnerInner1"/>
      <feColorMatrix values="0 0 0 0 0 0 0 0 0 0 0 0 0 0 0 0 0 0 0.345165308 0" in="shadowInnerInner1"/>
    </filter>
  </defs>
  <g fill="none" fill-rule="evenodd">
    <path d="M261.376 146.728c.312-3.218 2.633-5.83 5.582-6.654-.06-2.177-.887-7.55-6.928-12.946 1.44-14.527 4.78-47.255 9.192-68.975 1.355-6.672 7.7-23.411 22.444-25.047l-11.292 101.46-3.655 6.088c2.942 1.144 4.946 4.141 4.712 7.478l-4.819 68.912c-.286 4.092-3.833 7.21-7.884 6.927l-7.359-.515c-4.05-.283-7.039-3.858-6.643-7.94l6.65-68.788zM30.512 17.268c-1.398.098-2.44 1.644-2.315 3.432L30.8 57.922c.125 1.79-.713 3.32-1.862 3.4-1.144.08-2.187-1.317-2.312-3.108l-2.603-37.222c-.127-1.788-1.376-3.174-2.78-3.076-1.403.098-2.447 1.644-2.322 3.433l2.603 37.222c.125 1.79-.713 3.32-1.86 3.4-1.146.08-2.187-1.318-2.312-3.109l-2.603-37.221c-.125-1.789-1.374-3.175-2.779-3.077-1.402.099-2.448 1.645-2.323 3.434l2.603 37.221c.125 1.79-.711 3.32-1.858 3.4-1.148.08-2.19-1.317-2.314-3.108L5.475 22.289c-.125-1.788-1.379-3.174-2.783-3.076-1.405.099-2.455 1.645-2.33 3.434L4.435 80.9c.125 1.788 1.69 3.152 3.472 3.028l6.286-.44c2.351.802 2.6 4.333 2.8 7.188.67 9.586-1.25 81.628.133 101.406.945 13.523 6.84 24.127 13.163 23.685 6.327-.442 10.686-11.763 9.74-25.287v-.002a50.742 50.742 0 0 0-1.092-7.548c-3.176-21.999-12.22-85.001-12.773-92.895-.2-2.869-.449-6.422 1.806-7.495-.417.03-3.625.245-6.853.464l13.221-.925c1.785-.124 3.142-1.692 3.017-3.481l-4.073-58.253c-.123-1.789-1.372-3.175-2.77-3.077z" fill="#000" fill-rule="nonzero"/>
    <g>
      <use fill="#000" filter="url(#a)" xlink:href="#b"/>
      <use fill="#F7F7F7" xlink:href="#b"/>
    </g>
    <g>
      <use fill="#F3F3F3" xlink:href="#c"/>
      <use fill="#000" filter="url(#d)" xlink:href="#c"/>
    </g>
    <path d="M64 123.06c0-6.494 5.286-12.01 11.78-12.01 6.493 0 11.78 5.516 11.78 12.01 0 6.608-5.287 12.124-11.78 12.124-6.494 0-11.78-5.516-11.78-12.124zm6.263 0c0 3.275 2.414 5.918 5.517 5.918 3.045 0 5.516-2.643 5.516-5.918 0-3.218-2.47-5.804-5.516-5.804-3.103 0-5.517 2.586-5.517 5.804zm22.41 10.458c0 .574.518 1.091 1.092 1.091h4.252c1.092 0 1.437-.287 1.437-1.091v-12.642c.575-1.551 2.413-3.62 5.401-3.62 2.759 0 4.31 1.896 4.31 4.884v11.378c0 .574.46 1.091 1.092 1.091h4.712c.574 0 1.092-.517 1.092-1.091v-11.033c0-5.976-2.931-11.435-10.229-11.435-4.424 0-7.24 2.47-8.102 3.39l-.804-2.126c-.173-.402-.46-.69-.977-.69h-2.184c-.574 0-1.091.46-1.091 1.092v20.802zm28.1-10.401c0-6.493 4.884-12.067 11.722-12.067 5.918 0 10.745 4.482 10.745 10.688 0 .402-.057 1.15-.115 1.551-.057.575-.575.977-1.092.977h-14.71c.172 2.356 2.184 5 5.516 5 1.782 0 3.448-.69 4.482-1.437.575-.345 1.092-.46 1.494 0l2.356 2.7c.403.403.518 1.035-.057 1.495-1.896 1.78-4.827 3.16-8.562 3.16-6.895 0-11.78-5.459-11.78-12.067zm7.067-2.873h8.677c-.172-2.126-2.011-3.908-4.195-3.908-2.298 0-4.194 1.724-4.482 3.908z" fill="#8FC8E2"/>
    <path d="M128 164.34c0 1.376 1.1 2.614 2.615 2.614h54.22c1.376 0 2.615-1.238 2.615-2.615v-9.495c0-1.376-1.239-2.615-2.615-2.615H155.11c7.294-9.22 17.752-22.156 23.67-30.55 5.367-7.707 9.22-13.349 9.22-22.294C188 84.523 176.99 72 157.312 72c-16.376 0-27.11 13.486-27.11 13.486-.963 1.101-.688 2.753.137 3.578l6.606 6.606c1.1 1.1 2.615 1.1 3.716 0 3.165-3.44 8.807-8.12 15.412-8.12 9.909 0 14.588 6.33 14.588 12.523 0 4.68-2.753 10.046-7.019 15.276-9.22 12.247-26.56 34.816-35.642 45.825v3.165zM197.042 156.924a2.193 2.193 0 0 0 1.868 2.479l9.838 1.383c1.144.16 2.204-.74 2.364-1.885l10.322-73.438c.16-1.144-.61-2.302-1.754-2.463l-8.007-1.125L193.255 93.4c-.522.393-.847 1.047-.861 1.978l-.102 5.702c-.03 1.046 1.018 1.893 2.08 1.809l10.371-.759-7.7 54.793z" fill="#72A6BF"/>
  </g>
</svg>
