<svg xmlns="http://www.w3.org/2000/svg" xmlns:xlink="http://www.w3.org/1999/xlink" class="s-svg-icon">
  <symbol id="sound" viewBox="0 0 19 19"><title>Sound</title><path fill-rule="nonzero" fill="currentColor" d="M0 6.151v6.158h4.105l5.131 5.13V1.02L4.105 6.151H0zM13.854 9.23a4.618 4.618 0 0 0-2.566-4.136v8.261a4.591 4.591 0 0 0 2.566-4.125zm-2.566-9v2.114A7.189 7.189 0 0 1 16.42 9.23a7.189 7.189 0 0 1-5.132 6.886v2.114c4.116-.934 7.184-4.608 7.184-9s-3.068-8.066-7.184-9z"/></symbol>
  <symbol id="facebook" viewBox="0 0 20 20"><title>Facebook</title><path fill="currentColor" fill-rule="evenodd" d="M11.722 5c0-.694.373-1.25.84-1.25h2.94V0h-2.94C10.018 0 7.94 2.245 7.94 5v2.5H5v3.75h2.94V20h3.782v-8.75h3.78V7.5h-3.78V5z"/></symbol>
  <symbol id="study" viewBox="0 0 24 24"><title>study</title><path d="M0 0h24v24H0z" fill="none"/><path d="M18 2H6c-1.1 0-2 .9-2 2v16c0 1.1.9 2 2 2h12c1.1 0 2-.9 2-2V4c0-1.1-.9-2-2-2zM6 4h5v8l-2.5-1.5L6 12V4z" fill="currentColor" /></symbol>
  <symbol id="calendar" viewBox="0 0 24 24"><title>Calendar</title><path fill="currentColor" d="M9 11H7v2h2v-2zm4 0h-2v2h2v-2zm4 0h-2v2h2v-2zm2-7h-1V2h-2v2H8V2H6v2H5c-1.11 0-1.99.9-1.99 2L3 20a2 2 0 0 0 2 2h14c1.1 0 2-.9 2-2V6c0-1.1-.9-2-2-2zm0 16H5V9h14v11z"/></symbol>
  <symbol id="pray" viewBox="0 0 42 48"><title>Pray</title>  <path d="M39.16 3.292v-.008c.065-.298.099-.535.099-.711 0-.557-.044-.935-.133-1.133-.115-.188-.35-.281-.703-.281-.42.027-2.191 1.042-5.317 3.043a.373.373 0 0 1-.033.016c-.684.44-1.431.926-2.24 1.455a859.101 859.101 0 0 0-9.94 6.656.413.413 0 0 1-.297.066.382.382 0 0 1-.256-.174.385.385 0 0 1 .108-.554 872.462 872.462 0 0 1 9.946-6.664c.783-.512 1.508-.984 2.175-1.413.507-.822.791-1.373.852-1.654.05-.287.074-.488.074-.604 0-.502-.043-.858-.132-1.067-.099-.182-.278-.27-.537-.265-.408.028-2.425 1.155-6.052 3.382-4.178 2.558-6.654 4.011-7.425 4.358h-.008c-.921.402-1.761.868-2.523 1.397l-.015.016-.009.008c-.006 0-.009.003-.009.01-.23.159-.457.327-.678.503-.788.629-1.662 1.486-2.62 2.572-.591.672-1.593 1.849-3.01 3.53h-.009a114.97 114.97 0 0 1-2.514 2.821 1.7 1.7 0 0 0-.067.091 44.613 44.613 0 0 0-1.396 2.414l-.034.05c-1.334 2.502-2.171 4.754-2.513 6.755-.469 2.762-.963 4.652-1.48 5.672-.205.44-1.025 1.348-2.464 2.72 2.288 4.95 5.63 7.932 10.03 8.946 3.021-3.076 6.455-5.303 10.303-6.68 2.403-1.147 4.484-2.95 6.242-5.408.7-.976 1.442-2.18 2.225-3.614.237-.43.937-1.764 2.1-4.002.341-.672 1.16-1.563 2.455-2.671.005 0 .008-.003.008-.008a244.863 244.863 0 0 0 3.671-2.985l.232-.199.025-.025c1.35-1.146 2.37-2.147 3.06-3 .655-.827 1.08-1.602 1.272-2.324l.008-.008v-.01c0-.01.003-.018.009-.023.066-.276.099-.544.099-.803 0-.556-.042-.937-.124-1.14-.111-.183-.32-.273-.63-.273-.313.01-.815.22-1.504.628h-.008l-.008.009c-2.238 1.317-6.21 4.542-11.916 9.674a.381.381 0 0 1-.289.107.417.417 0 0 1-.273-.132.382.382 0 0 1-.107-.29.427.427 0 0 1 .132-.28c5.717-5.144 9.713-8.39 11.99-9.741.909-1.146 1.549-2.095 1.918-2.844.436-.877.653-1.71.653-2.498 0-.39-.094-.772-.28-1.14v.008c-.205-.39-.472-.595-.803-.612-.248.023-.904.39-1.968 1.1l-.009.009h-.008c-1.322.882-3.205 2.26-5.647 4.134a306.942 306.942 0 0 0-8.293 6.573.41.41 0 0 1-.298.083.399.399 0 0 1-.273-.14.408.408 0 0 1-.083-.298.37.37 0 0 1 .14-.265 320.481 320.481 0 0 1 8.318-6.59c2.42-1.863 4.294-3.236 5.623-4.118.713-1.156 1.101-1.875 1.167-2.157zM14.692 4.41c-.938 2.657-2.18 5.258-3.73 7.805v.008A59.613 59.613 0 0 0 8.4 16.912c.491-.54.978-1.092 1.463-1.654a267.582 267.582 0 0 1 3.019-3.539c.997-1.13 1.907-2.02 2.728-2.67h-.008c.225-.183.46-.356.703-.521 1.152-1.102 1.774-2.059 1.868-2.87a8.066 8.066 0 0 0-.115-2.48c-.155-.727-.593-1.309-1.315-1.744h-.008c-.232-.11-.483 0-.753.33-.413.506-.843 1.388-1.29 2.646zm23.242 15.759c-.181 1.582-.35 3.147-.504 4.696v.025c-.254 1.478-1.026 2.743-2.315 3.796a.384.384 0 0 1-.29.082.404.404 0 0 1-.273-.14.413.413 0 0 1-.083-.298.372.372 0 0 1 .14-.265c1.12-.91 1.792-2.003 2.018-3.282.133-1.28.27-2.569.414-3.87-.8.661-1.858 1.521-3.176 2.58-1.184 1.014-1.938 1.82-2.257 2.422-1.163 2.243-1.866 3.583-2.109 4.018-.8 1.461-1.557 2.69-2.273 3.688-1.842 2.58-4.025 4.47-6.55 5.672a19.863 19.863 0 0 0-.951.355c.016.04.022.083.016.133.006.55-.217 1.684-.67 3.397-.39 1.461-.164 2.523.679 3.184.965.694 3.335 1.116 7.11 1.265 1.842.067 3.19-.162 4.044-.686.755-.491 1.07-1.257.943-2.299-.32-2.59.14-4.525 1.38-5.804 1.148-1.213 2.534-2.941 4.16-5.185 1.615-2.227 2.693-4.413 3.233-6.557.546-2.172.954-4.32 1.224-6.44.204-1.61.207-3.206.009-4.789a9.441 9.441 0 0 1-.877 1.282v.009c-.688.86-1.702 1.864-3.042 3.01z" fill="currentColor" fill-rule="evenodd"/></symbol>
  <symbol id="arrowRight" viewBox="0 0 8 12"><title>Next</title><path d="M0 10.59L4.58 6 0 1.41 1.41 0l6 6-6 6z" fill="currentColor" fill-rule="nonzero"/></symbol>
  <symbol id="arrowLeft" viewBox="0 0 8 12"><title>Previous</title><path d="M7.41 10.59L2.83 6l4.58-4.59L6 0 0 6l6 6z" fill="currentColor" fill-rule="nonzero"/></symbol>
  <symbol id="help" viewBox="0 0 24 24"><path fill="none" d="M0 0h24v24H0z"/><path fill="currentColor" d="M19 2H5a2 2 0 0 0-2 2v14a2 2 0 0 0 2 2h4l3 3 3-3h4c1.1 0 2-.9 2-2V4c0-1.1-.9-2-2-2zm-6 16h-2v-2h2v2zm2.07-7.75l-.9.92C13.45 11.9 13 12.5 13 14h-2v-.5c0-1.1.45-2.1 1.17-2.83l1.24-1.26c.37-.36.59-.86.59-1.41 0-1.1-.9-2-2-2s-2 .9-2 2H8c0-2.21 1.79-4 4-4s4 1.79 4 4c0 .88-.36 1.68-.93 2.25z"/></symbol>
  <symbol id="android" viewBox="0 0 24 24"><path fill="none" d="M0 0h24v24H0z"/><path fill="currentColor" d="M6 18c0 .55.45 1 1 1h1v3.5c0 .83.67 1.5 1.5 1.5s1.5-.67 1.5-1.5V19h2v3.5c0 .83.67 1.5 1.5 1.5s1.5-.67 1.5-1.5V19h1c.55 0 1-.45 1-1V8H6v10zM3.5 8C2.67 8 2 8.67 2 9.5v7c0 .83.67 1.5 1.5 1.5S5 17.33 5 16.5v-7C5 8.67 4.33 8 3.5 8zm17 0c-.83 0-1.5.67-1.5 1.5v7c0 .83.67 1.5 1.5 1.5s1.5-.67 1.5-1.5v-7c0-.83-.67-1.5-1.5-1.5zm-4.97-5.84l1.3-1.3c.2-.2.2-.51 0-.71-.2-.2-.51-.2-.71 0l-1.48 1.48A5.84 5.84 0 0 0 12 1c-.96 0-1.86.23-2.66.63L7.85.15c-.2-.2-.51-.2-.71 0-.2.2-.2.51 0 .71l1.31 1.31A5.983 5.983 0 0 0 6 7h12c0-1.99-.97-3.75-2.47-4.84zM10 5H9V4h1v1zm5 0h-1V4h1v1z"/></symbol>
  <symbol id="apple" viewBox="0 0 24 24"><path fill="currentColor" d="M18.71,19.5C17.88,20.74 17,21.95 15.66,21.97C14.32,22 13.89,21.18 12.37,21.18C10.84,21.18 10.37,21.95 9.1,22C7.79,22.05 6.8,20.68 5.96,19.47C4.25,17 2.94,12.45 4.7,9.39C5.57,7.87 7.13,6.91 8.82,6.88C10.1,6.86 11.32,7.75 12.11,7.75C12.89,7.75 14.37,6.68 15.92,6.84C16.57,6.87 18.39,7.1 19.56,8.82C19.47,8.88 17.39,10.1 17.41,12.63C17.44,15.65 20.06,16.66 20.09,16.67C20.06,16.74 19.67,18.11 18.71,19.5M13,3.5C13.73,2.67 14.94,2.04 15.94,2C16.07,3.17 15.6,4.35 14.9,5.19C14.21,6.04 13.07,6.7 11.95,6.61C11.8,5.46 12.36,4.26 13,3.5Z" /></symbol>
  <symbol id="group" viewBox="0 0 24 24"><path fill="none" d="M0 0h24v24H0z"/><path fill="currentColor" d="M16 11c1.66 0 2.99-1.34 2.99-3S17.66 5 16 5c-1.66 0-3 1.34-3 3s1.34 3 3 3zm-8 0c1.66 0 2.99-1.34 2.99-3S9.66 5 8 5C6.34 5 5 6.34 5 8s1.34 3 3 3zm0 2c-2.33 0-7 1.17-7 3.5V19h14v-2.5c0-2.33-4.67-3.5-7-3.5zm8 0c-.29 0-.62.02-.97.05 1.16.84 1.97 1.97 1.97 3.45V19h6v-2.5c0-2.33-4.67-3.5-7-3.5z"/></symbol>
  <symbol id="question" viewBox="0 0 24 24"><path fill="none" d="M0 0h24v24H0z"/><path fill="currentColor" d="M12 2C6.48 2 2 6.48 2 12s4.48 10 10 10 10-4.48 10-10S17.52 2 12 2zm1 17h-2v-2h2v2zm2.07-7.75l-.9.92C13.45 12.9 13 13.5 13 15h-2v-.5c0-1.1.45-2.1 1.17-2.83l1.24-1.26c.37-.36.59-.86.59-1.41 0-1.1-.9-2-2-2s-2 .9-2 2H8c0-2.21 1.79-4 4-4s4 1.79 4 4c0 .88-.36 1.68-.93 2.25z"/></symbol>
  <symbol id="knifefork" viewBox="0 0 24 24"><path fill="currentColor" d="M11 9H9V2H7v7H5V2H3v7c0 2.12 1.66 3.84 3.75 3.97V22h2.5v-9.03C11.34 12.84 13 11.12 13 9V2h-2v7zm5-3v8h2.5v8H21V2c-2.76 0-5 2.24-5 4z"/></symbol>
  <symbol id="cookie" viewBox="0 0 24 24"><path fill="currentColor" d="M12 3a9 9 0 0 0-9 9 9 9 0 0 0 9 9 9 9 0 0 0 9-9c0-.5-.04-1-.13-1.5C20.6 10 20 10 20 10h-2V9c0-1-1-1-1-1h-2V7c0-1-1-1-1-1h-1V4c0-1-1-1-1-1M9.5 6A1.5 1.5 0 0 1 11 7.5 1.5 1.5 0 0 1 9.5 9 1.5 1.5 0 0 1 8 7.5 1.5 1.5 0 0 1 9.5 6m-3 4A1.5 1.5 0 0 1 8 11.5 1.5 1.5 0 0 1 6.5 13 1.5 1.5 0 0 1 5 11.5 1.5 1.5 0 0 1 6.5 10m5 1a1.5 1.5 0 0 1 1.5 1.5 1.5 1.5 0 0 1-1.5 1.5 1.5 1.5 0 0 1-1.5-1.5 1.5 1.5 0 0 1 1.5-1.5m5 2a1.5 1.5 0 0 1 1.5 1.5 1.5 1.5 0 0 1-1.5 1.5 1.5 1.5 0 0 1-1.5-1.5 1.5 1.5 0 0 1 1.5-1.5M11 16a1.5 1.5 0 0 1 1.5 1.5A1.5 1.5 0 0 1 11 19a1.5 1.5 0 0 1-1.5-1.5A1.5 1.5 0 0 1 11 16z"/></symbol>
</svg>
